<svg width="40" height="40" viewBox="0 0 40 40" fill="none" xmlns="http://www.w3.org/2000/svg">
    <path d="M14.4185 10H21.8605C22.0447 9.99919 22.2219 10.0711 22.3535 10.2L27.9345 15.781C28.0634 15.9126 28.1353 16.0898 28.1345 16.274V27.442C28.1337 28.1202 27.8639 28.7704 27.3844 29.2499C26.9048 29.7295 26.2547 29.9992 25.5765 30H14.4185C13.7403 29.9992 13.0901 29.7295 12.6106 29.2499C12.131 28.7704 11.8613 28.1202 11.8605 27.442V12.558C11.8613 11.8798 12.131 11.2297 12.6106 10.7501C13.0901 10.2706 13.7403 10.0008 14.4185 10ZM21.5715 11.4H14.4185C14.111 11.4003 13.8161 11.5222 13.5982 11.7392C13.3803 11.9561 13.2571 12.2505 13.2555 12.558V27.442C13.2557 27.7504 13.3784 28.046 13.5964 28.2641C13.8144 28.4821 14.1101 28.6047 14.4185 28.605H25.5815C25.8898 28.6047 26.1855 28.4821 26.4035 28.2641C26.6216 28.046 26.7442 27.7504 26.7445 27.442V16.568L21.5715 11.4Z" fill="#656565"/>
    <path d="M27.3895 17.5H21.3895C21.1906 17.5 20.9998 17.421 20.8592 17.2803C20.7185 17.1397 20.6395 16.9489 20.6395 16.75V10.75C20.6395 10.5511 20.7185 10.3603 20.8592 10.2197C20.9998 10.079 21.1906 10 21.3895 10C21.5884 10 21.7792 10.079 21.9199 10.2197C22.0605 10.3603 22.1395 10.5511 22.1395 10.75V16H27.3895C27.5884 16 27.7792 16.079 27.9199 16.2197C28.0605 16.3603 28.1395 16.5511 28.1395 16.75C28.1395 16.9489 28.0605 17.1397 27.9199 17.2803C27.7792 17.421 27.5884 17.5 27.3895 17.5Z" fill="#656565"/>
    <path d="M23.4855 21.675H16.5105C16.3253 21.6605 16.1534 21.5736 16.0317 21.4333C15.9101 21.2929 15.8486 21.1104 15.8605 20.925C15.8486 20.7397 15.9101 20.5572 16.0317 20.4168C16.1534 20.2765 16.3253 20.1896 16.5105 20.175H23.4855C23.6713 20.1886 23.8443 20.2751 23.9667 20.4155C24.0892 20.556 24.1513 20.7391 24.1395 20.925C24.1513 21.111 24.0892 21.2941 23.9667 21.4346C23.8443 21.575 23.6713 21.6615 23.4855 21.675Z" fill="#656565"/>
    <path d="M23.4855 25.375H16.5105C16.3253 25.3604 16.1534 25.2736 16.0317 25.1332C15.9101 24.9929 15.8486 24.8103 15.8605 24.625C15.8486 24.4397 15.9101 24.2571 16.0317 24.1168C16.1534 23.9764 16.3253 23.8896 16.5105 23.875H23.4855C23.6713 23.8886 23.8443 23.975 23.9667 24.1155C24.0892 24.2559 24.1513 24.439 24.1395 24.625C24.1513 24.811 24.0892 24.9941 23.9667 25.1345C23.8443 25.275 23.6713 25.3614 23.4855 25.375Z" fill="#656565"/>
    <path d="M18.2614 17.975H16.2614C16.0624 17.975 15.8717 17.896 15.731 17.7553C15.5904 17.6147 15.5114 17.4239 15.5114 17.225C15.5114 17.0261 15.5904 16.8353 15.731 16.6946C15.8717 16.554 16.0624 16.475 16.2614 16.475H18.2614C18.4603 16.475 18.651 16.554 18.7917 16.6946C18.9323 16.8353 19.0114 17.0261 19.0114 17.225C19.0114 17.4239 18.9323 17.6147 18.7917 17.7553C18.651 17.896 18.4603 17.975 18.2614 17.975Z" fill="#656565"/>
</svg>
