<svg width="24" height="24" viewBox="0 0 24 24" fill="none" xmlns="http://www.w3.org/2000/svg">
    <path fill-rule="evenodd" clip-rule="evenodd"
        d="M16.5001 0.750001C16.5001 0.335787 16.1643 0 15.7501 0C15.3359 0 15.0001 0.335787 15.0001 0.750001V2.5H6.50034V0.750001C6.50034 0.335787 6.16456 0 5.75034 0C5.33613 0 5.00034 0.335787 5.00034 0.750001V2.5H2.25C1.00736 2.5 0 3.50735 0 4.75V10.75V21.75C0 22.9927 1.00736 24 2.25 24H19.25C20.4927 24 21.5 22.9927 21.5 21.75V10.75V4.75C21.5 3.50736 20.4927 2.5 19.25 2.5H16.5001V0.750001ZM20 9.99998V4.75C20 4.33578 19.6642 4 19.25 4H16.5001V5.75001C16.5001 6.16422 16.1643 6.50001 15.7501 6.50001C15.3359 6.50001 15.0001 6.16422 15.0001 5.75001V4H6.50034V5.75001C6.50034 6.16422 6.16456 6.50001 5.75034 6.50001C5.33613 6.50001 5.00034 6.16422 5.00034 5.75001V4H2.25C1.83579 4 1.5 4.33578 1.5 4.75V9.99998H20ZM1.5 11.5H20V21.75C20 22.1642 19.6642 22.5 19.25 22.5H2.25C1.83579 22.5 1.5 22.1642 1.5 21.75V11.5ZM8.75025 15.75C8.75025 15.3358 9.08603 15 9.50025 15H10.7502C10.7502 15 10.7502 15 10.7502 15C10.8085 15 10.8652 15.0067 10.9197 15.0193C11.2523 15.0961 11.5002 15.3941 11.5002 15.75C11.5002 15.7524 11.5002 15.7547 11.5002 15.7571V19.5C11.5002 19.9143 11.1644 20.25 10.7502 20.25C10.336 20.25 10.0002 19.9143 10.0002 19.5V16.5H9.50025C9.08603 16.5 8.75025 16.1642 8.75025 15.75Z"
        fill="#000000" />
</svg>
