<svg xmlns="http://www.w3.org/2000/svg" width="24" height="20" viewBox="0 0 24 20">
    <g id="Group_5551" transform="translate(0 -2)">
        <path id="Path_966" d="M4,22a1,1,0,0,1-1-1V14a1,1,0,0,1,2,0v7A1,1,0,0,1,4,22Z"
            fill="#071021" />
        <path id="Path_967" d="M4,11a1,1,0,0,1-1-1V3A1,1,0,0,1,5,3v7A1,1,0,0,1,4,11Z"
            fill="#071021" />
        <path id="Path_968" d="M12,22a1,1,0,0,1-1-1V12a1,1,0,0,1,2,0v9A1,1,0,0,1,12,22Z"
            fill="#071021" />
        <path id="Path_969" d="M12,9a1,1,0,0,1-1-1V3a1,1,0,0,1,2,0V8A1,1,0,0,1,12,9Z"
            fill="#071021" />
        <path id="Path_970" d="M20,22a1,1,0,0,1-1-1V16a1,1,0,0,1,2,0v5A1,1,0,0,1,20,22Z"
            fill="#071021" />
        <path id="Path_971" d="M20,13a1,1,0,0,1-1-1V3a1,1,0,0,1,2,0v9A1,1,0,0,1,20,13Z"
            fill="#071021" />
        <path id="Path_972" d="M7,15H1a1,1,0,0,1,0-2H7a1,1,0,0,1,0,2Z" fill="#071021" />
        <path id="Path_973" d="M15,9H9A1,1,0,0,1,9,7h6a1,1,0,0,1,0,2Z" fill="#071021" />
        <path id="Path_974" d="M23,17H17a1,1,0,0,1,0-2h6a1,1,0,0,1,0,2Z" fill="#071021" />
    </g>
</svg>
