<?xml version="1.0" encoding="utf-8"?>
<!-- Generator: Adobe Illustrator 27.1.1, SVG Export Plug-In . SVG Version: 6.00 Build 0)  -->
<svg version="1.1" id="Layer_1" xmlns="http://www.w3.org/2000/svg" xmlns:xlink="http://www.w3.org/1999/xlink" x="0px" y="0px"
    viewBox="0 0 22 22" style="enable-background:new 0 0 22 22;" xml:space="preserve">
<style type="text/css">
	.st0{fill:#707070;}
</style>
    <path class="st0" d="M6.7,9.2H2c-1.3,0-2.3-1-2.3-2.3V2.3C-0.2,1,0.8,0,2,0h4.6C7.9,0,9,1,9,2.3v4.6C9,8.2,7.9,9.2,6.7,9.2L6.7,9.2z
	 M2,1.5c-0.4,0-0.8,0.3-0.8,0.8v4.6c0,0.4,0.3,0.8,0.8,0.8h4.6c0.4,0,0.8-0.3,0.8-0.8V2.3c0-0.4-0.3-0.8-0.8-0.8L2,1.5L2,1.5z"/>
    <path class="st0" d="M19.5,9.2h-4.6c-1.3,0-2.3-1-2.3-2.3V2.3c0-1.3,1-2.3,2.3-2.3h4.6c1.3,0,2.3,1,2.3,2.3v4.6
	C21.7,8.2,20.7,9.2,19.5,9.2L19.5,9.2z M14.8,1.5c-0.4,0-0.8,0.3-0.8,0.8v4.6c0,0.4,0.3,0.8,0.8,0.8h4.6c0.4,0,0.8-0.3,0.8-0.8V2.3
	c0-0.4-0.3-0.8-0.8-0.8L14.8,1.5L14.8,1.5z"/>
    <path class="st0" d="M6.7,22H2c-1.3,0-2.3-1-2.3-2.3v-4.6c0-1.3,1-2.3,2.3-2.3h4.6c1.3,0,2.3,1,2.3,2.3v4.6C8.9,21,7.9,22,6.7,22
	L6.7,22z M2.1,14.3c-0.4,0-0.8,0.3-0.8,0.8v4.6c0,0.4,0.3,0.8,0.8,0.8h4.6c0.4,0,0.8-0.3,0.8-0.8v-4.6c0-0.4-0.3-0.8-0.8-0.8H2.1
	L2.1,14.3z"/>
    <path class="st0" d="M21,16.6h-3.1v-3.1c0-0.4-0.3-0.8-0.8-0.8s-0.8,0.3-0.8,0.8v3.1h-3.1c-0.4,0-0.8,0.3-0.8,0.8s0.3,0.8,0.8,0.8
	h3.1v3.1c0,0.4,0.3,0.8,0.8,0.8s0.8-0.3,0.8-0.8v-3.1H21c0.4,0,0.8-0.3,0.8-0.8S21.4,16.6,21,16.6z"/>
</svg>
