<?xml version="1.0" encoding="utf-8"?>
<!-- Generator: Adobe Illustrator 27.1.1, SVG Export Plug-In . SVG Version: 6.00 Build 0)  -->
<svg version="1.1" id="Layer_1" xmlns="http://www.w3.org/2000/svg" xmlns:xlink="http://www.w3.org/1999/xlink" x="0px" y="0px"
    viewBox="0 0 22 22" style="enable-background:new 0 0 22 22;" xml:space="preserve">
<style type="text/css">
	.st0{fill:#00529C;}
</style>
    <g>
	<path class="st0" d="M2.3,0h4.6c1.3,0,2.3,1,2.3,2.3v4.6c0,1.3-1,2.3-2.3,2.3H2.3C1,9.2,0,8.2,0,6.9V2.3C0,1,1,0,2.3,0z"/>
        <path class="st0" d="M15.1,0h4.6C21,0,22,1,22,2.3v4.6c0,1.3-1,2.3-2.3,2.3h-4.6c-1.3,0-2.3-1-2.3-2.3V2.3C12.8,1,13.8,0,15.1,0z"
        />
        <path class="st0" d="M2.3,12.8h4.6c1.3,0,2.3,1,2.3,2.3v4.6c0,1.3-1,2.3-2.3,2.3H2.3C1,22,0,21,0,19.7v-4.6C0,13.8,1,12.8,2.3,12.8
		z"/>
</g>
    <path class="st0" d="M21.2,16.6h-3.1v-3.1c0-0.4-0.3-0.8-0.8-0.8s-0.8,0.3-0.8,0.8v3.1h-3.1c-0.4,0-0.8,0.3-0.8,0.8s0.3,0.8,0.8,0.8
	h3.1v3.1c0,0.4,0.3,0.8,0.8,0.8s0.8-0.3,0.8-0.8v-3.1h3.1c0.4,0,0.8-0.3,0.8-0.8S21.7,16.6,21.2,16.6z"/>
</svg>
