<svg width="40" height="40" viewBox="0 0 40 40" fill="none" xmlns="http://www.w3.org/2000/svg">
    <path d="M28.0273 22.1047C28.3216 21.8132 28.3239 21.3383 28.0324 21.044C27.7409 20.7497 27.266 20.7474 26.9717 21.0389L28.0273 22.1047ZM19.9995 28.9998L19.4717 29.5327C19.764 29.8221 20.235 29.8221 20.5273 29.5327L19.9995 28.9998ZM13.0273 21.0389C12.733 20.7474 12.2581 20.7497 11.9666 21.044C11.6752 21.3383 11.6774 21.8132 11.9717 22.1047L13.0273 21.0389ZM11.9764 22.1093C12.2733 22.3982 12.7481 22.3917 13.037 22.0949C13.3258 21.798 13.3194 21.3232 13.0225 21.0343L11.9764 22.1093ZM19.9995 15.0058L19.3975 15.4532C19.5386 15.643 19.7609 15.7552 19.9974 15.7558C20.2339 15.7565 20.4568 15.6456 20.5989 15.4566L19.9995 15.0058ZM26.9739 21.0428C26.6784 21.333 26.6741 21.8079 26.9644 22.1034C27.2547 22.3989 27.7295 22.4031 28.025 22.1129L26.9739 21.0428ZM26.9717 21.0389L19.4717 28.4669L20.5273 29.5327L28.0273 22.1047L26.9717 21.0389ZM20.5273 28.4669L13.0273 21.0389L11.9717 22.1047L19.4717 29.5327L20.5273 28.4669ZM13.0225 21.0343C11.8761 19.9188 11.4532 18.254 11.9281 16.7265L10.4958 16.2812C9.8532 18.3477 10.4254 20.6001 11.9764 22.1093L13.0225 21.0343ZM11.9281 16.7265C12.4031 15.1991 13.6954 14.0677 15.2723 13.7989L15.0202 12.3202C12.8868 12.6839 11.1383 14.2146 10.4958 16.2812L11.9281 16.7265ZM15.2723 13.7989C16.8491 13.5301 18.4433 14.1694 19.3975 15.4532L20.6014 14.5584C19.3105 12.8215 17.1536 11.9565 15.0202 12.3202L15.2723 13.7989ZM20.5989 15.4566C21.5571 14.1822 23.1479 13.5514 24.719 13.8227L24.9743 12.3446C22.8487 11.9775 20.6964 12.831 19.4 14.5551L20.5989 15.4566ZM24.719 13.8227C26.2902 14.094 27.5773 15.2219 28.0526 16.7438L29.4844 16.2966C28.8413 14.2376 27.0999 12.7117 24.9743 12.3446L24.719 13.8227ZM28.0526 16.7438C28.5279 18.2656 28.1114 19.9255 26.9739 21.0428L28.025 22.1129C29.5639 20.6013 30.1274 18.3556 29.4844 16.2966L28.0526 16.7438Z" fill="#6E6B7B"/>
</svg>
