<svg width="40" height="40" viewBox="0 0 40 40" fill="none" xmlns="http://www.w3.org/2000/svg">
<path fill-rule="evenodd" clip-rule="evenodd" d="M20 11.75C15.4437 11.75 11.75 15.4437 11.75 20C11.75 24.5563 15.4437 28.25 20 28.25C24.5563 28.25 28.25 24.5563 28.25 20C28.25 15.4437 24.5563 11.75 20 11.75ZM10.25 20C10.25 14.6152 14.6152 10.25 20 10.25C25.3848 10.25 29.75 14.6152 29.75 20C29.75 25.3848 25.3848 29.75 20 29.75C14.6152 29.75 10.25 25.3848 10.25 20ZM19.25 16C19.25 15.5858 19.5858 15.25 20 15.25H20.01C20.4242 15.25 20.76 15.5858 20.76 16C20.76 16.4142 20.4242 16.75 20.01 16.75H20C19.5858 16.75 19.25 16.4142 19.25 16ZM19 19.25C18.5858 19.25 18.25 19.5858 18.25 20C18.25 20.4142 18.5858 20.75 19 20.75H19.25V24C19.25 24.4142 19.5858 24.75 20 24.75H21C21.4142 24.75 21.75 24.4142 21.75 24C21.75 23.5858 21.4142 23.25 21 23.25H20.75V20C20.75 19.5858 20.4142 19.25 20 19.25H19Z" fill="#6E6B7B"/>
</svg>
