<?xml version="1.0" encoding="utf-8"?>
<!-- Generator: Adobe Illustrator 27.1.1, SVG Export Plug-In . SVG Version: 6.00 Build 0)  -->
<svg version="1.1" id="Layer_1" xmlns="http://www.w3.org/2000/svg" xmlns:xlink="http://www.w3.org/1999/xlink" x="0px" y="0px"
    viewBox="0 0 22 22" style="enable-background:new 0 0 22 22;" xml:space="preserve">
<style type="text/css">
	.st0{fill:#00529C;}
</style>
    <path class="st0" d="M21.9,2.7c-0.1-0.3-0.4-0.5-0.7-0.5h-1.5V0.7c0-0.3-0.2-0.6-0.5-0.7c-0.3-0.1-0.6-0.1-0.8,0.2l-2.2,2.2
	c-0.1,0.1-0.2,0.3-0.2,0.5v1.9l-5.7,5.7c-0.3,0.3-0.3,0.8,0,1c0.1,0.1,0.3,0.2,0.5,0.2s0.4-0.1,0.5-0.2l5.7-5.7h1.9
	c0.2,0,0.4-0.1,0.5-0.2l2.2-2.2C22,3.2,22.1,2.9,21.9,2.7L21.9,2.7z"/>
    <g>
	<path class="st0" d="M0,11c0,6,4.9,11,11,11s11-5,11-11c0-1.6-0.4-3.2-1.1-4.6l-2,2c0.3,0.8,0.4,1.7,0.4,2.6c0,4.6-3.8,8.4-8.4,8.4
		S2.6,15.6,2.6,11S6.4,2.7,11,2.7c0.9,0,1.8,0.2,2.6,0.4l2-2C14.2,0.5,12.6,0,11,0C4.9,0,0,5,0,11z"/>
        <path class="st0" d="M5.2,11c0,3.2,2.6,5.8,5.8,5.8s5.8-2.6,5.8-5.8c0-0.7-0.1-1.3-0.4-1.9h-0.8l-1.5,1.5c0,0.1,0,0.3,0,0.4
		c0,1.8-1.4,3.2-3.2,3.2S7.7,12.8,7.7,11S9.2,7.8,11,7.8c0.1,0,0.3,0,0.4,0l1.5-1.5V5.6c-0.6-0.2-1.2-0.4-1.9-0.4
		C7.8,5.2,5.2,7.8,5.2,11L5.2,11z"/>
</g>
</svg>
