<svg xmlns="http://www.w3.org/2000/svg" width="14.559" height="16.2" viewBox="0 0 14.559 16.2">
    <g id="svgexport-18" transform="translate(-0.15 -2.15)">
        <path id="Path_7283"
            d="M13.994,20.212a.606.606,0,0,1-.615-.6v-1.59a2.629,2.629,0,0,0-2.667-2.583H4.147a2.629,2.629,0,0,0-2.667,2.583v1.59a.606.606,0,0,1-.615.6.606.606,0,0,1-.615-.6v-1.59a3.842,3.842,0,0,1,3.9-3.776h6.564a3.842,3.842,0,0,1,3.9,3.776v1.59A.606.606,0,0,1,13.994,20.212Z"
            transform="translate(0 -1.962)" fill="#071021" stroke="#6e6b7b" stroke-linecap="round"
            stroke-width="0.2" />
        <path id="Ellipse_501"
            d="M3.25-.75a3.9,3.9,0,0,1,4,3.776,3.9,3.9,0,0,1-4,3.776,3.9,3.9,0,0,1-4-3.776A3.9,3.9,0,0,1,3.25-.75Zm0,6.359A2.666,2.666,0,0,0,5.987,3.026,2.666,2.666,0,0,0,3.25.442,2.666,2.666,0,0,0,.513,3.026,2.666,2.666,0,0,0,3.25,5.609Z"
            transform="translate(4.179 3)" fill="#071021" stroke="#6e6b7b" stroke-linecap="round"
            stroke-width="0.2" />
    </g>
</svg>
