<?xml version="1.0" encoding="utf-8"?>
<!-- Generator: Adobe Illustrator 27.1.1, SVG Export Plug-In . SVG Version: 6.00 Build 0)  -->
<svg version="1.1" id="Layer_1" xmlns="http://www.w3.org/2000/svg" xmlns:xlink="http://www.w3.org/1999/xlink" x="0px" y="0px"
    viewBox="0 0 22 22" style="enable-background:new 0 0 22 22;" xml:space="preserve">
<style type="text/css">
	.st0{fill:#707070;}
</style>
    <path class="st0" d="M21,6.5c-0.2-0.4-0.6-0.5-1-0.4c-0.4,0.2-0.5,0.6-0.4,1c0.6,1.2,0.8,2.6,0.8,3.9c0,5.3-4.3,9.5-9.5,9.5
	S1.5,16.3,1.5,11S5.7,1.5,11,1.5c1.4,0,2.7,0.3,3.9,0.8c0.4,0.2,0.8,0,1-0.4c0.2-0.4,0-0.8-0.4-1c-1.4-0.6-2.9-1-4.5-1
	C4.9,0,0,4.9,0,11s4.9,11,11,11s11-4.9,11-11C22,9.4,21.7,7.9,21,6.5z"/>
    <path class="st0" d="M13.2,5.6c0.4,0.2,0.8,0,0.9-0.4c0.1-0.4,0-0.8-0.4-0.9c-0.9-0.3-1.8-0.5-2.7-0.5c-4,0-7.3,3.3-7.3,7.3
	s3.3,7.3,7.3,7.3s7.3-3.3,7.3-7.3c0-0.9-0.2-1.9-0.5-2.7c-0.1-0.4-0.6-0.6-1-0.4c-0.4,0.1-0.6,0.6-0.4,0.9c0.3,0.7,0.4,1.4,0.4,2.2
	c0,3.2-2.6,5.9-5.9,5.9S5.1,14.2,5.1,11S7.7,5.1,11,5.1C11.7,5.1,12.5,5.3,13.2,5.6L13.2,5.6z"/>
    <path class="st0" d="M10.4,8.9C10.7,8.8,11,8.4,10.8,8c-0.1-0.4-0.5-0.6-0.9-0.5C8.4,8,7.3,9.4,7.3,11c0,2,1.6,3.7,3.7,3.7
	c1.6,0,3-1,3.5-2.6c0-0.1,0-0.1,0-0.2c0-0.4-0.3-0.7-0.7-0.7c-0.3,0-0.6,0.2-0.7,0.5c-0.3,0.9-1.1,1.5-2.1,1.5c-1.2,0-2.2-1-2.2-2.2
	C8.8,10,9.4,9.2,10.4,8.9L10.4,8.9z"/>
    <path class="st0" d="M10.5,10.5c-0.3,0.3-0.3,0.8,0,1c0.1,0.1,0.3,0.2,0.5,0.2s0.4-0.1,0.5-0.2l5.6-5.7h1.9c0.2,0,0.4-0.1,0.5-0.2
	l2.2-2.2C22,3.2,22.1,2.9,22,2.7s-0.4-0.5-0.7-0.5h-1.5V0.7c0-0.3-0.2-0.6-0.5-0.7c-0.3-0.1-0.6-0.1-0.8,0.2l-2.2,2.2
	c-0.1,0.1-0.2,0.3-0.2,0.5v1.9L10.5,10.5L10.5,10.5z M17.6,3.2l0.7-0.7v0.4c0,0.4,0.3,0.7,0.7,0.7h0.4l-0.7,0.7h-1.2V3.2z"/>
</svg>
