<?xml version="1.0" encoding="utf-8"?>
<!-- Generator: Adobe Illustrator 27.1.1, SVG Export Plug-In . SVG Version: 6.00 Build 0)  -->
<svg version="1.1" id="Layer_1" xmlns="http://www.w3.org/2000/svg" xmlns:xlink="http://www.w3.org/1999/xlink" x="0px" y="0px"
    viewBox="0 0 22 22" style="enable-background:new 0 0 22 22;" xml:space="preserve">
<style type="text/css">
	.st0{fill:#707070;}
</style>
    <path class="st0" d="M21.5,4.5c0-0.1,0-0.2-0.1-0.3C21.3,4.1,21.2,4,21.1,4c-0.7,0-1.3,0-2,0.1l-0.2,0V2.4c0-0.1,0-0.2-0.1-0.3
	C18.6,2,18.5,2,18.4,2c-2.1,0-4.1,0.7-5.7,2c-0.6,0.5-1.1,1.1-1.5,1.7l-0.1,0.1h-0.3l-0.1-0.1C10.4,5.1,9.9,4.5,9.3,4
	C7.7,2.7,5.7,2,3.6,2C3.5,2,3.4,2,3.3,2.1S3.2,2.3,3.2,2.4v1.7l-0.2,0C2.3,4.1,1.6,4,0.9,4c-0.1,0-0.2,0-0.3,0.1
	C0.6,4.2,0.5,4.3,0.5,4.5v13.3c0,0.1,0,0.2,0.1,0.3c0.1,0.1,0.2,0.1,0.3,0.1c3-0.1,5.9,0.5,8.6,1.8h0C9.6,20,9.7,20,9.8,20h2.5
	c0.1,0,0.1,0,0.2,0l0,0c2.7-1.2,5.7-1.8,8.6-1.8c0.1,0,0.2,0,0.3-0.1c0.1-0.1,0.1-0.2,0.1-0.3L21.5,4.5z M9.3,18.9l-0.3-0.1
	c-2.4-0.9-4.9-1.4-7.5-1.5l-0.2,0V4.9l0.2,0c2.6,0,5.2,0.6,7.7,1.6l0.1,0.1V18.9z M9,5.5c-1.5-0.6-3.2-1-4.8-1.2L4,4.2V2.8l0.2,0
	c1.6,0.1,3.2,0.7,4.5,1.8C8.9,4.8,9.1,5,9.2,5.2l0.7,0.7L9,5.5z M11.8,19.2h-1.6V6.7h1.6V19.2z M12.1,5.9l0.6-0.7
	c0.2-0.2,0.4-0.4,0.6-0.6c1.3-1.1,2.8-1.7,4.5-1.8l0.2,0v1.4l-0.2,0c-1.7,0.2-3.3,0.7-4.9,1.3L12.1,5.9z M20.7,17.3l-0.2,0
	c-2.6,0.1-5.1,0.6-7.5,1.5l-0.3,0.1V6.6l0.1-0.1c2.4-1,5-1.6,7.7-1.6l0.2,0L20.7,17.3z"/>
    <path class="st0" d="M18.6,12.2c-0.1-0.1-0.2-0.1-0.3-0.1h0c-1.3,0.1-2.6,0.4-3.8,0.8c-0.1,0-0.2,0.1-0.2,0.2
	c-0.1,0.1-0.1,0.2,0,0.3c0,0.1,0.1,0.2,0.2,0.2c0.1,0.1,0.2,0.1,0.3,0c1.2-0.4,2.4-0.6,3.7-0.7c0.1,0,0.2,0,0.2-0.1s0.1-0.1,0.1-0.2
	s0-0.2,0-0.2C18.7,12.3,18.6,12.2,18.6,12.2"/>
    <path class="st0" d="M18.6,14.9c-0.1-0.1-0.2-0.1-0.3-0.1h0c-1.3,0.1-2.6,0.4-3.8,0.8c-0.1,0-0.2,0.1-0.2,0.2
	c-0.1,0.1-0.1,0.2,0,0.3c0,0.1,0.1,0.2,0.2,0.2c0.1,0.1,0.2,0.1,0.3,0c1.2-0.4,2.4-0.6,3.7-0.7c0.1,0,0.2,0,0.2-0.1s0.1-0.1,0.1-0.2
	s0-0.2,0-0.2C18.7,15,18.6,15,18.6,14.9"/>
    <path class="st0" d="M18.3,10.2c0.1,0,0.2-0.1,0.3-0.1c0.1-0.1,0.1-0.2,0.1-0.3V7.5c0-0.1,0-0.1,0-0.2c0-0.1-0.1-0.1-0.1-0.1
	c0,0-0.1-0.1-0.1-0.1c-0.1,0-0.1,0-0.2,0h0c-1.3,0.1-2.6,0.4-3.8,0.8c-0.1,0-0.2,0.1-0.2,0.2c-0.1,0.1-0.1,0.2-0.1,0.2v2.3
	c0,0.1,0,0.1,0,0.2c0,0.1,0.1,0.1,0.1,0.1c0.1,0,0.1,0.1,0.2,0.1c0.1,0,0.1,0,0.2,0C15.9,10.6,17.1,10.3,18.3,10.2z M15,8.5l0.2,0
	c0.8-0.2,1.7-0.4,2.5-0.5l0.2,0v1.5l-0.2,0c-0.8,0.1-1.7,0.3-2.5,0.5L15,10L15,8.5z"/>
</svg>
