<?xml version="1.0" encoding="UTF-8"?>
<svg id="Layer_1" data-name="Layer 1" xmlns="http://www.w3.org/2000/svg" viewBox="0 0 22 22">
    <defs>
        <style>
            .cls-1 {
            fill: #00529c;
            }
        </style>
    </defs>
    <rect class="cls-1" x="10.18" y="6.72" width="1.64" height="13.28"/>
    <path class="cls-1" d="m4.19,4.25c1.65.21,3.27.63,4.81,1.24l.9.37h.93s-.05-.08-.05-.08c-.41-.65-.91-1.23-1.49-1.73-1.58-1.36-3.61-2.09-5.7-2.05-.11,0-.22.04-.3.12-.08.08-.12.18-.12.3v1.71l-.23-.02,1.06.11.18.02Z"/>
    <path class="cls-1" d="m12.1,5.88l.85-.34c1.57-.61,3.2-1.03,4.86-1.27l1.24-.15-.23.02v-1.72c0-.11-.04-.22-.12-.29-.08-.08-.18-.12-.29-.12-2.09-.05-4.12.68-5.7,2.04-.58.5-1.08,1.09-1.49,1.74l-.06.1h0s.93,0,.93,0Z"/>
    <path class="cls-1" d="m9.34,6.56l-.12-.06c-2.42-1.05-5.02-1.6-7.66-1.63h-.21v-.02h-.84v12.87c0,.11.04.22.12.29.08.08.18.12.3.12,2.9-.07,5.77.52,8.41,1.71V6.56Z"/>
    <path class="cls-1" d="m15.36,8.49l-.15.04v1.43s.27-.07.27-.07c.81-.21,1.64-.37,2.48-.47l.18-.02v-1.46l-.24.03c-.86.11-1.71.28-2.54.51Z"/>
    <path class="cls-1" d="m21.49,4.87h-.84s-.22,0-.22,0c-2.63.08-5.22.63-7.65,1.64l-.13.05v13.29c2.66-1.13,5.52-1.71,8.41-1.71.11,0,.22-.04.3-.12.08-.08.12-.18.12-.29V4.45s0,.42,0,.42Zm-2.54,10.48c-.02.08-.07.15-.14.2-.06.05-.14.08-.22.09-1.25.11-2.48.35-3.67.72-.11.03-.22.02-.32-.03-.1-.05-.17-.14-.21-.25-.03-.11-.02-.22.03-.32.05-.1.14-.17.25-.21,1.25-.39,2.54-.64,3.85-.76h.04c.1,0,.19.03.27.1h0c.06.05.11.12.13.2.02.08.02.16,0,.24Zm0-2.72c-.02.08-.07.15-.14.2-.06.05-.14.08-.22.09-1.25.11-2.48.35-3.67.72-.11.03-.22.02-.32-.03-.1-.05-.17-.14-.21-.25-.03-.11-.02-.22.03-.32.05-.1.14-.17.25-.21,1.25-.39,2.54-.64,3.85-.76h.04c.1,0,.19.03.27.1h0c.06.05.11.12.13.2.02.08.02.16,0,.24Zm.03-2.85c0,.1-.04.2-.11.28-.07.08-.17.12-.27.13-1.25.11-2.48.35-3.67.72-.06.02-.13.02-.19.01s-.13-.04-.18-.08c-.05-.04-.1-.09-.13-.15-.03-.06-.04-.12-.05-.19v-2.3c0-.09.03-.18.08-.25.05-.07.13-.12.21-.15,1.25-.39,2.54-.64,3.85-.76h.04c.05,0,.11.01.16.03.05.02.1.05.14.09.04.04.07.08.09.14.02.05.03.11.03.16v2.3Z"/>
</svg>