<svg width="16" height="16" viewBox="0 0 16 16" fill="none" xmlns="http://www.w3.org/2000/svg">
<path d="M16 2.17795C16 2.07949 15.9664 1.98506 15.9067 1.91544C15.8469 1.84582 15.7659 1.80671 15.6814 1.80671C15.1753 1.80671 14.6589 1.83391 14.1459 1.88672L13.9722 1.90512V0.373782C13.9722 0.275527 13.9388 0.181261 13.8794 0.111559C13.82 0.0418582 13.7393 0.00238218 13.6549 0.00174828C12.0631 -0.0382477 10.5148 0.609219 9.30816 1.81951C8.86602 2.26548 8.48304 2.7853 8.17167 3.36205L8.12498 3.45006H7.87365L7.82833 3.36205C7.51755 2.78574 7.13526 2.2662 6.69391 1.82031C5.48734 0.60973 3.93905 -0.038026 2.34712 0.00174828C2.26268 0.00195964 2.18174 0.0411395 2.12202 0.110714C2.06231 0.180288 2.02868 0.27459 2.0285 0.372982V1.89312L1.85408 1.87872C1.34936 1.83071 0.832275 1.80591 0.317253 1.80591C0.232924 1.80655 0.152233 1.84602 0.0927952 1.91572C0.0333572 1.98542 -1.75503e-06 2.07969 0 2.17795V13.9854C0.000181417 14.0838 0.0338092 14.1781 0.093524 14.2477C0.153239 14.3173 0.234177 14.3564 0.318627 14.3567C2.58644 14.2935 4.83628 14.8396 6.89373 15.9528H6.89992C6.94757 15.9838 7.00123 16 7.05579 16H8.94695C8.99464 15.9995 9.0416 15.9864 9.08429 15.9616L9.09597 15.956C11.1728 14.8997 13.4146 14.355 15.6807 14.3559C15.7651 14.3556 15.8461 14.3165 15.9058 14.2469C15.9655 14.1773 15.9991 14.083 15.9993 13.9846L16 2.17795ZM6.73648 15.0367L6.51605 14.9303C4.69208 14.0942 2.75302 13.6508 0.793133 13.6214L0.63794 13.6166V2.55158L0.801373 2.55638C2.81222 2.58066 4.79869 3.07217 6.64446 4.00211L6.73648 4.05172V15.0367ZM6.47622 3.10363C5.29661 2.55827 4.06276 2.18813 2.80378 2.00193L2.66644 1.98033V0.750616L2.83605 0.764217C4.09004 0.838306 5.28758 1.39456 6.24137 2.34596C6.38536 2.49046 6.52288 2.64347 6.65339 2.8044L7.15948 3.42926L6.47622 3.10363ZM8.62695 15.2647H7.37373V4.19573H8.62695V15.2647ZM8.83983 3.44766L9.31365 2.85161C9.45409 2.67487 9.60287 2.5074 9.75931 2.34996C10.713 1.39678 11.9111 0.839082 13.166 0.764217L13.3356 0.750616V1.99473L13.1983 2.01793C11.9296 2.22936 10.6856 2.60781 9.49013 3.14603L8.83983 3.44766ZM15.3634 13.6206L15.2082 13.6254C13.2483 13.6896 11.312 14.1411 9.48189 14.9607L9.26421 15.0607V4.06132L9.36103 4.01331C11.2151 3.12101 13.1928 2.62792 15.1979 2.55798L15.3621 2.55238L15.3634 13.6206Z" fill="#00529C"/>
<path d="M13.9639 9.0546C13.9061 8.99839 13.8331 8.96804 13.7579 8.969H13.7283C12.7321 9.0712 11.748 9.29649 10.7927 9.64106C10.712 9.67055 10.6447 9.73618 10.6056 9.82351C10.5664 9.91083 10.5586 10.0127 10.584 10.1067C10.6093 10.2007 10.6656 10.2791 10.7406 10.3247C10.8155 10.3704 10.9029 10.3794 10.9836 10.3499C11.8956 10.0215 12.8351 9.80695 13.786 9.70986C13.8488 9.70314 13.9084 9.67488 13.9574 9.62865C14.0064 9.58242 14.0425 9.52031 14.0612 9.45016C14.0799 9.38001 14.0803 9.30497 14.0623 9.23456C14.0444 9.16415 14.0089 9.10153 13.9604 9.0546" fill="#00529C"/>
<path d="M13.9639 11.474C13.9061 11.4178 13.8331 11.3874 13.7579 11.3884H13.7283C12.7321 11.4906 11.748 11.7158 10.7927 12.0604C10.712 12.0899 10.6447 12.1555 10.6056 12.2429C10.5664 12.3302 10.5586 12.4321 10.584 12.5261C10.6093 12.6201 10.6656 12.6985 10.7406 12.7441C10.8155 12.7897 10.9029 12.7988 10.9836 12.7693C11.8956 12.4409 12.8351 12.2263 13.786 12.1292C13.8488 12.1225 13.9084 12.0942 13.9574 12.048C14.0064 12.0018 14.0425 11.9397 14.0612 11.8695C14.0799 11.7994 14.0803 11.7243 14.0623 11.6539C14.0444 11.5835 14.0089 11.5209 13.9604 11.474" fill="#00529C"/>
<path d="M13.7915 7.29044C13.8708 7.28241 13.9446 7.23995 13.9983 7.17148C14.052 7.10301 14.0816 7.01353 14.0813 6.9208V4.87262C14.0813 4.8238 14.073 4.77546 14.057 4.73037C14.0409 4.68528 14.0174 4.64431 13.9877 4.60983C13.9581 4.57535 13.9229 4.54802 13.8841 4.52941C13.8454 4.5108 13.8039 4.50128 13.762 4.50139H13.7332C12.7372 4.60362 11.7533 4.8289 10.7982 5.17344C10.7333 5.19691 10.6767 5.24401 10.6365 5.30781C10.5963 5.37161 10.5748 5.44875 10.575 5.52788V7.57606C10.5751 7.63428 10.5869 7.69167 10.6094 7.74363C10.632 7.79559 10.6646 7.84068 10.7048 7.87529C10.7452 7.9097 10.792 7.93261 10.8414 7.9422C10.8907 7.95179 10.9413 7.94778 10.9891 7.93049C11.9012 7.60208 12.8406 7.38752 13.7915 7.29044ZM11.2123 5.8039L11.3283 5.7655C11.9631 5.55839 12.6101 5.40596 13.2641 5.30945L13.4441 5.28225V6.58317L13.3067 6.60318C12.6691 6.69139 12.0373 6.82958 11.4156 7.01681L11.2157 7.07761L11.2123 5.8039Z" fill="#00529C"/>
</svg>
