<?xml version="1.0" encoding="utf-8"?>
<!-- Generator: Adobe Illustrator 27.1.1, SVG Export Plug-In . SVG Version: 6.00 Build 0)  -->
<svg version="1.1" id="Layer_1" xmlns="http://www.w3.org/2000/svg" xmlns:xlink="http://www.w3.org/1999/xlink" x="0px" y="0px"
    viewBox="0 0 22 22" style="enable-background:new 0 0 22 22;" xml:space="preserve">
<style type="text/css">
	.st0{fill:#00529C;}
</style>
    <path class="st0" d="M17.8,1.2h-0.9c0.4,0.7,0.6,1.5,0.6,2.3c0,1.1-0.9,1.9-1.9,1.9H6.4c-1.1,0-1.9-0.9-1.9-1.9
	c0-0.8,0.2-1.6,0.6-2.3H4.2c-1.1,0-1.9,0.9-1.9,1.9v16.9c0,1.1,0.9,1.9,1.9,1.9h13.6c1.1,0,1.9-0.9,1.9-1.9V3.1
	C19.7,2.1,18.9,1.2,17.8,1.2L17.8,1.2z M8.7,18.3l-1.4,1.4c-0.2,0.2-0.7,0.2-0.9,0L5.7,19c-0.2-0.2-0.2-0.7,0-0.9s0.7-0.2,0.9,0
	l0.2,0.2l0.9-1c0.2-0.2,0.7-0.2,0.9,0S9,18.1,8.7,18.3z M8.7,14.6L7.3,16c-0.2,0.2-0.7,0.2-0.9,0l-0.7-0.7c-0.2-0.2-0.2-0.7,0-0.9
	s0.7-0.2,0.9,0l0.2,0.2l0.9-0.9c0.2-0.2,0.7-0.2,0.9,0S9,14.4,8.7,14.6z M7.5,12c-0.2,0.2-0.7,0.2-0.9,0s-0.2-0.7,0-0.9l2.3-2.3
	c0.2-0.2,0.7-0.2,0.9,0l1.9,1.9l1.5-1.5h-0.1c-0.4,0-0.6-0.3-0.6-0.6s0.3-0.7,0.6-0.7c1.8,0,1.9-0.1,2.2,0.3c0.1,0.2,0.1,0.3,0.1,2
	c0,0.4-0.3,0.6-0.6,0.6s-0.6-0.3-0.6-0.6v-0.1l-2,2c-0.2,0.2-0.7,0.2-0.9,0l-1.9-1.9L7.5,12L7.5,12z M15.8,19.2h-5.2
	c-0.4,0-0.6-0.3-0.6-0.6s0.3-0.6,0.6-0.6h5.2c0.4,0,0.6,0.3,0.6,0.6S16.1,19.2,15.8,19.2z M15.8,15.5h-5.2c-0.4,0-0.6-0.3-0.6-0.6
	s0.3-0.6,0.6-0.6h5.2c0.4,0,0.6,0.3,0.6,0.6S16.1,15.5,15.8,15.5z"/>
    <path class="st0" d="M12.7,0H9.3C7.3,0,5.8,1.6,5.8,3.5c0,0.4,0.3,0.6,0.6,0.6h9.1c0.4,0,0.6-0.3,0.6-0.7C16.2,1.6,14.6,0,12.7,0
	L12.7,0z"/>
</svg>
