<?xml version="1.0" encoding="utf-8"?>
<!-- Generator: Adobe Illustrator 27.1.1, SVG Export Plug-In . SVG Version: 6.00 Build 0)  -->
<svg version="1.1" id="Layer_1" xmlns="http://www.w3.org/2000/svg" xmlns:xlink="http://www.w3.org/1999/xlink" x="0px" y="0px"
    viewBox="0 0 22 22" style="enable-background:new 0 0 22 22;" xml:space="preserve">
<style type="text/css">
	.st0{fill:#707070;}
</style>
    <path class="st0" d="M18,1.2h-2.4C15,0.5,14,0,13,0H9.5c-1.1,0-2,0.5-2.6,1.2H4.5c-1.1,0-1.9,0.9-1.9,1.9v16.9
	c0,1.1,0.9,1.9,1.9,1.9H18c1.1,0,1.9-0.9,1.9-1.9V3.1C20,2.1,19.1,1.2,18,1.2L18,1.2z M9.5,1.3H13c1,0,1.8,0.7,2.1,1.5H7.4
	C7.7,2,8.5,1.3,9.5,1.3L9.5,1.3z M18.7,20.1c0,0.4-0.3,0.6-0.6,0.6H4.5c-0.4,0-0.6-0.3-0.6-0.6V3.1c0-0.4,0.3-0.6,0.6-0.6h1.7
	C6.1,2.8,6,3.1,6,3.5s0.3,0.6,0.6,0.6h9.1c0.4,0,0.6-0.3,0.6-0.7s0-0.7-0.1-1H18c0.4,0,0.6,0.3,0.6,0.6L18.7,20.1L18.7,20.1z"/>
    <path class="st0" d="M8.1,12.8l-0.9,0.9l-0.2-0.2c-0.2-0.2-0.7-0.2-0.9,0s-0.2,0.7,0,0.9l0.7,0.7c0.2,0.2,0.7,0.2,0.9,0L9,13.7
	c0.2-0.2,0.2-0.7,0-0.9S8.3,12.6,8.1,12.8z"/>
    <path class="st0" d="M16,13.4h-5.2c-0.4,0-0.6,0.3-0.6,0.6s0.3,0.6,0.6,0.6H16c0.4,0,0.6-0.3,0.6-0.6S16.4,13.4,16,13.4z"/>
    <path class="st0" d="M8.1,16.5l-0.9,1l-0.2-0.2C6.6,17,6.2,17,6,17.3s-0.2,0.7,0,0.9l0.7,0.7c0.2,0.2,0.7,0.2,0.9,0L9,17.4
	c0.2-0.2,0.2-0.7,0-0.9S8.3,16.3,8.1,16.5z"/>
    <path class="st0" d="M16,17h-5.2c-0.4,0-0.6,0.3-0.6,0.6s0.3,0.6,0.6,0.6H16c0.4,0,0.6-0.3,0.6-0.6S16.4,17,16,17z"/>
    <path class="st0" d="M12.5,10.4l2-2v0.1c0,0.4,0.3,0.6,0.6,0.6s0.6-0.3,0.6-0.6c0-1.8,0-1.7,0-1.7c-0.1-0.3-0.3-0.6-0.6-0.6h-1.6
	c-0.4,0-0.6,0.3-0.6,0.7s0.3,0.7,0.6,0.7h0.1L12,9l-1.9-1.9c-0.2-0.2-0.7-0.2-0.9,0L6.8,9.4c-0.2,0.2-0.2,0.7,0,0.9s0.7,0.2,0.9,0
	l1.9-1.9l1.9,1.9C11.8,10.6,12.2,10.6,12.5,10.4L12.5,10.4z"/>
</svg>
