<svg width="40" height="40" viewBox="0 0 40 40" fill="none" xmlns="http://www.w3.org/2000/svg">
    <path fill-rule="evenodd" clip-rule="evenodd" d="M18.325 12.317C18.751 10.561 21.249 10.561 21.675 12.317C21.8046 12.8521 22.182 13.293 22.6907 13.5037C23.1993 13.7145 23.7779 13.6696 24.248 13.383C25.791 12.443 27.558 14.209 26.618 15.753C26.3318 16.2229 26.2871 16.8011 26.4975 17.3094C26.708 17.8177 27.1484 18.195 27.683 18.325C29.439 18.751 29.439 21.249 27.683 21.675C27.1479 21.8046 26.707 22.182 26.4963 22.6907C26.2855 23.1993 26.3304 23.7779 26.617 24.248C27.557 25.791 25.791 27.558 24.247 26.618C23.7771 26.3318 23.1989 26.2871 22.6906 26.4975C22.1823 26.708 21.805 27.1484 21.675 27.683C21.249 29.439 18.751 29.439 18.325 27.683C18.1954 27.1479 17.818 26.707 17.3093 26.4963C16.8007 26.2855 16.2221 26.3304 15.752 26.617C14.209 27.557 12.442 25.791 13.382 24.247C13.6682 23.7771 13.7129 23.1989 13.5025 22.6906C13.292 22.1823 12.8516 21.805 12.317 21.675C10.561 21.249 10.561 18.751 12.317 18.325C12.8521 18.1954 13.293 17.818 13.5037 17.3093C13.7145 16.8007 13.6696 16.2221 13.383 15.752C12.443 14.209 14.209 12.442 15.753 13.382C16.753 13.99 18.049 13.452 18.325 12.317Z" stroke="#6E6B7B" stroke-width="1.5" stroke-linecap="round" stroke-linejoin="round"/>
    <circle cx="20" cy="20" r="3" stroke="#6E6B7B" stroke-width="1.5" stroke-linecap="round" stroke-linejoin="round"/>
</svg>
