<svg width="16" height="18" viewBox="0 0 16 18" fill="none" xmlns="http://www.w3.org/2000/svg">
<path d="M10.9395 12.3876L13.8804 15.3661L15 16.5L10.9395 12.3876ZM1 7.45313C1 5.87426 1.61929 4.36006 2.72164 3.24363C3.82399 2.1272 5.31909 1.5 6.87804 1.5C8.437 1.5 9.9321 2.1272 11.0344 3.24363C12.1368 4.36006 12.7561 5.87426 12.7561 7.45313C12.7561 9.032 12.1368 10.5462 11.0344 11.6626C9.9321 12.7791 8.437 13.4063 6.87804 13.4063C5.31909 13.4063 3.82399 12.7791 2.72164 11.6626C1.61929 10.5462 1 9.032 1 7.45313Z" stroke="#858585" stroke-width="1.5" stroke-linecap="round" stroke-linejoin="round"/>
</svg>
