<svg width="40" height="40" viewBox="0 0 40 40" fill="none" xmlns="http://www.w3.org/2000/svg">
    <path d="M20 10.5C20.9376 10.5 21.8541 10.7786 22.6337 11.3005C23.4132 11.8225 24.0208 12.5643 24.3796 13.4323C24.7384 14.3002 24.8323 15.2553 24.6494 16.1767C24.4664 17.0981 24.015 17.9445 23.352 18.6088C22.6891 19.2731 21.8444 19.7255 20.9248 19.9087C20.0053 20.092 19.0522 19.9979 18.186 19.6384C17.3198 19.2789 16.5794 18.6701 16.0585 17.889C15.5376 17.1078 15.2596 16.1895 15.2596 15.25C15.2609 13.9906 15.7608 12.7832 16.6495 11.8927C17.5382 11.0022 18.7432 10.5013 20 10.5ZM20 18.5C20.6415 18.5 21.2686 18.3094 21.802 17.9523C22.3354 17.5952 22.7511 17.0876 22.9966 16.4937C23.2421 15.8999 23.3063 15.2464 23.1811 14.616C23.056 13.9855 22.7471 13.4064 22.2935 12.9519C21.8399 12.4974 21.262 12.1878 20.6328 12.0624C20.0036 11.937 19.3515 12.0014 18.7588 12.2474C18.1662 12.4934 17.6596 12.9099 17.3032 13.4444C16.9468 13.9789 16.7566 14.6072 16.7566 15.25C16.7577 16.1116 17.0997 16.9377 17.7077 17.5469C18.3158 18.1562 19.1401 18.4989 20 18.5Z" fill="#6E6B7B"/>
    <path d="M27.9839 29.5C27.7854 29.5 27.595 29.421 27.4546 29.2803C27.3143 29.1397 27.2354 28.9489 27.2354 28.75V26.75C27.2343 25.8884 26.8923 25.0623 26.2842 24.4531C25.6762 23.8438 24.8518 23.5011 23.992 23.5H16.0081C15.1482 23.5011 14.3239 23.8438 13.7158 24.4531C13.1078 25.0623 12.7657 25.8884 12.7647 26.75V28.75C12.7647 28.9489 12.6858 29.1397 12.5454 29.2803C12.4051 29.421 12.2147 29.5 12.0162 29.5C11.8177 29.5 11.6273 29.421 11.4869 29.2803C11.3466 29.1397 11.2677 28.9489 11.2677 28.75V26.75C11.269 25.4906 11.7689 24.2832 12.6576 23.3927C13.5463 22.5022 14.7513 22.0013 16.0081 22H23.992C25.2488 22.0013 26.4538 22.5022 27.3425 23.3927C28.2312 24.2832 28.731 25.4906 28.7324 26.75V28.75C28.7324 28.9489 28.6535 29.1397 28.5131 29.2803C28.3728 29.421 28.1824 29.5 27.9839 29.5Z" fill="#6E6B7B"/>
</svg>
